#!OML:ASF I:\Actors\actors\Patient Classification 1\Patient 1\Session 1\Subject1.ASF
:FULLY-SPECIFIED
:DEGREES
1350
root 0.0731108 17.4964 8.01214 12.231 18.4468 -7.02617
lowerback 7.60797 0.925619 2.96987
upperback -4.88401 1.70643 1.14011
thorax -9.42187 0.684858 -0.721126
lowerneck -8.07324 -10.897 -8.63513
upperneck 23.586 -16.0874 9.46744
head 10.3453 -7.26743 2.7703
rclavicle 3.72721e-014 3.97569e-016
rhumerus -48.8448 -3.72269 -83.7381
rradius 145.874
rwrist -49.6106
rhand 64.795 -65.5078
rfingers 7.12502
rthumb 74.9197 -15.4527
lclavicle 3.72721e-014 3.97569e-016
lhumerus -51.5434 -0.987808 90.2135
lradius 143.155
lwrist 52.2432
lhand 64.6053 -13.988
lfingers 7.12502
lthumb 74.9353 -423.341
rfemur -5.55429 25.7751 20.999
rtibia 1.06608
rfoot -21.2038 -39.8902
rtoes 18.1616
lfemur -17.6039 -67.9219 7.59524
ltibia -3.14584
lfoot -12.2323 64.8021
ltoes -1.39315
1351
root 0.0835091 17.4937 8.01556 12.2897 18.4427 -6.92465
lowerback 7.65338 0.868057 3.04411
upperback -4.9012 1.63017 1.02867
thorax -9.46499 0.637757 -0.870549
lowerneck -8.02899 -10.9681 -8.58329
upperneck 23.6235 -16.2262 9.54304
head 10.368 -7.32019 2.76992
rclavicle -1.98288e-014 -2.94201e-014
rhumerus -49.6366 -2.40568 -83.8302
rradius 145.914
rwrist -49.1013
rhand 64.8844 -65.5727
rfingers 7.12502
rthumb 74.9116 -15.1876
lclavicle -1.98288e-014 -2.94201e-014
lhumerus -52.0392 -1.06096 90.4721
lradius 143.144
lwrist 52.4232
lhand 64.2939 -13.9662
lfingers 7.12502
lthumb 74.9558 -422.164
rfemur -5.44856 26.0666 20.8731
rtibia 0.922318
rfoot -21.4162 -40.1688
rtoes 18.4389
lfemur -18.0491 -68.2981 7.90277
ltibia -3.02447
lfoot -12.3393 65.1585
ltoes -1.59692
1352
root 0.0958032 17.4908 8.01517 12.3033 18.2875 -6.8177
lowerback 7.78045 0.862847 3.10201
upperback -4.89032 1.62346 0.901599
thorax -9.5234 0.624612 -1.03974
lowerneck -8.05057 -11.0586 -8.44333
upperneck 23.6935 -16.3806 9.51636
head 10.3989 -7.37929 2.71455
rclavicle 6.32632e-014 -2.26615e-014
rhumerus -50.5787 -1.01494 -83.8488
rradius 145.969
rwrist -48.7042
rhand 64.6956 -65.3257
rfingers 7.12502
rthumb 74.9281 -15.6383
lclavicle 6.32632e-014 -2.26615e-014
lhumerus -52.5253 -0.813193 90.752
lradius 143.073
lwrist 52.9042
lhand 64.1457 -13.8488
lfingers 7.12502
lthumb 74.9633 -421.496
rfemur -5.42557 26.1819 20.6903
rtibia 0.910533
rfoot -21.3592 -40.177
rtoes 18.2923
lfemur -18.0663 -68.5968 7.80442
ltibia -2.97293
lfoot -12.8188 65.504
ltoes -1.22943
1353
root 0.109063 17.4904 8.01508 12.2047 17.9946 -6.66664
lowerback 7.93802 0.93175 3.00215
upperback -4.75852 1.69891 0.823929
thorax -9.46851 0.66614 -1.08055
lowerneck -8.20812 -11.1746 -8.48769
upperneck 23.7912 -16.5531 9.55739
head 10.4919 -7.44829 2.69892
rclavicle -5.96354e-015 -2.22639e-014
rhumerus -51.4852 -0.22192 -83.4504
rradius 146.037
rwrist -48.7306
rhand 64.6186 -65.3244
rfingers 7.12502
rthumb 74.9342 -15.9221
lclavicle -5.96354e-015 -2.22639e-014
lhumerus -52.7404 -0.0436634 91.0979
lradius 142.974
lwrist 53.5016
lhand 64.3455 -13.4628
lfingers 7.12502
lthumb 74.9528 -421.852
rfemur -5.33056 26.2346 20.4819
rtibia 0.996592
rfoot -21.2283 -40.0146
rtoes 17.9278
lfemur -17.331 -68.8994 6.94006
ltibia -2.96173
lfoot -13.8432 65.8299
ltoes -0.369099
1354
root 0.122317 17.491 8.01804 12.1634 17.7839 -6.55889
lowerback 7.96443 1.00659 2.99137
upperback -4.62923 1.78765 0.742419
thorax -9.33602 0.70981 -1.17448
lowerneck -8.30901 -11.2775 -8.74227
upperneck 23.8017 -16.7247 9.82748
head 10.5852 -7.51599 2.79752
rclavicle 1.02424e-013 3.53837e-014
rhumerus -52.3536 -0.499524 -82.8182
rradius 146.122
rwrist -49.0691
rhand 64.5176 -65.3854
rfingers 7.12502
rthumb 74.9417 -16.3574
lclavicle 1.02424e-013 3.53837e-014
lhumerus -52.7275 1.2529 91.5559
lradius 142.897
lwrist 53.8623
lhand 65.0491 -13.3552
lfingers 7.12502
lthumb 74.8952 -424.348
rfemur -5.29631 26.28 20.3188
rtibia 1.09219
rfoot -21.2488 -39.8938
rtoes 17.8794
lfemur -16.9288 -69.2108 6.42631
ltibia -2.91182
lfoot -14.8083 66.1565
ltoes 0.243963
1355
root 0.135542 17.492 8.01926 12.2064 17.6668 -6.516
lowerback 7.92387 1.08355 3.15302
upperback -4.56735 1.89526 0.610327
thorax -9.23072 0.749367 -1.42056
lowerneck -8.34894 -11.3795 -8.90686
upperneck 23.8364 -16.9196 10.108
head 10.6722 -7.58708 2.88627
rclavicle 1.75924e-014 -1.27222e-014
rhumerus -53.1565 -1.76751 -82.3514
rradius 146.313
rwrist -49.3172
rhand 64.1577 -65.3062
rfingers 7.12502
rthumb 74.9628 -17.6148
lclavicle 1.75924e-014 -1.27222e-014
lhumerus -52.5006 2.79719 92.2009
lradius 142.884
lwrist 54.1661
lhand 65.8506 -13.4104
lfingers 7.12502
lthumb 74.7911 -427.338
rfemur -5.40304 26.2521 20.1858
rtibia 1.21581
rfoot -21.2872 -39.7729
rtoes 17.8754
lfemur -17.0792 -69.5094 6.49865
ltibia -2.83751
lfoot -15.1852 66.5229
ltoes 0.387445
